<svg height="512pt" viewBox="0 0 512 512" width="512pt" xmlns="http://www.w3.org/2000/svg"><linearGradient id="a" gradientUnits="userSpaceOnUse" x1="0" x2="512" y1="256" y2="256"><stop offset="0" stop-color="#00f2fe"/><stop offset=".021" stop-color="#03effe"/><stop offset=".293" stop-color="#24d2fe"/><stop offset=".554" stop-color="#3cbdfe"/><stop offset=".796" stop-color="#4ab0fe"/><stop offset="1" stop-color="#4facfe"/></linearGradient><path d="M435.012 177.48c0 .106-.016.204-.016.305-.078 47.832-18.402 80.48-34.375 103.59-3.883 5.613-10.125 8.629-16.469 8.629a19.891 19.891 0 01-11.355-3.55c-9.086-6.278-11.36-18.735-5.078-27.821C386.839 230.965 395 206.695 395 177.48c0-.062.008-.12.012-.183-.051-36.746-14.473-71.27-40.633-97.238C328.329 54.203 293.859 40 257.223 40c-.352 0-.7.004-1.051.004a3.664 3.664 0 01-.293 0c-37.399-.254-72.617 14.133-99.25 40.566-26.207 26.016-40.64 60.434-40.64 96.91 0 49.075 24.71 79.649 50.87 112.016 21.793 26.961 44.207 54.711 50.438 92.414H242c11.047 0 20 8.953 20 20 0 11.043-8.953 20-20 20h-23v33.735c0 9.02 7.2 16.355 16.05 16.355h40.9c8.855 0 16.062-7.34 16.062-16.355V403.05c0-.078-.012-.156-.012-.235 0-.23.012-.46.012-.695V401c0-.191.023-.375.027-.562.414-22.368 6.645-43.786 19.05-65.395 5.5-9.582 17.724-12.887 27.302-7.39 9.582 5.5 12.886 17.726 7.386 27.304-9.265 16.145-13.644 31.152-13.765 47.168v53.52c0 31.074-25.149 56.355-56.063 56.355h-40.898C204.145 512 179 486.719 179 455.645v-52.829c0-34.668-20.043-59.464-43.25-88.175-28.012-34.66-59.762-73.942-59.762-137.157 0-47.222 18.63-91.718 52.457-125.3C162.38 18.504 207.211 0 254.813 0c.406 0 .804.004 1.21.004.403 0 .809-.004 1.207-.004 47.27 0 91.727 18.316 125.329 51.672 33.824 33.574 52.453 78.258 52.453 125.808zM492 159c-11.047 0-20 8.953-20 20s8.953 20 20 20 20-8.953 20-20-8.953-20-20-20zm-25 108c-11.047 0-20 8.953-20 20s8.953 20 20 20 20-8.953 20-20-8.953-20-20-20zm-1-179c11.047 0 20-8.953 20-20s-8.953-20-20-20-20 8.953-20 20 8.953 20 20 20zM40 179c0-11.047-8.953-20-20-20s-20 8.953-20 20 8.953 20 20 20 20-8.953 20-20zm4 88c-11.047 0-20 8.953-20 20s8.953 20 20 20 20-8.953 20-20-8.953-20-20-20zm1-219c-11.047 0-20 8.953-20 20s8.953 20 20 20 20-8.953 20-20-8.953-20-20-20zm210.008 254c-11.043 0-20 8.953-20 20s8.957 20 20 20c11.047 0 20-8.953 20-20s-8.953-20-20-20zm32.176-63.863A81.906 81.906 0 00337 162.687c0-.296-.008-.59-.02-.882-.476-44.797-37.066-81.09-81.972-81.09-21.88 0-42.43 8.363-57.856 23.555-15.554 15.316-24.12 35.816-24.12 57.73 0 11.047 8.952 20 20 20s20-8.953 20-20c0-23.152 18.437-41.285 41.976-41.285 23.144 0 41.976 18.832 41.976 41.976 0 .215.004.426.012.641a41.97 41.97 0 01-25.52 38.02c-22.152 9.457-36.468 31.316-36.468 55.687 0 11.047 8.953 20 20 20s20-8.953 20-20c0-8.324 4.781-15.746 12.176-18.902zm0 0" fill="url(#a)"/></svg>