<svg xmlns="http://www.w3.org/2000/svg" viewBox="0 0 512 512"><path d="M299.441 384.751c-14.64.68-50.594 9.858-62.393 18.551l-25.446 19.368-100.428-131.421c14.817-11.322 23.525-21.964 24.633-26.155l47.629-128.521c1.851-13.846 14.575-23.569 28.421-21.718 13.845 1.851 23.569 14.575 21.718 28.421l-7.345 50.617c-.667 4.596 4.583 7.68 8.273 4.861l158.922-121.41c10.97-8.383 26.832-6.882 35.494 3.868 8.959 11.118 6.948 27.363-4.327 35.979l23.446-17.917c11.099-8.481 26.972-6.36 35.454 4.739s6.36 26.972-4.74 35.454l-28.714 21.942c11.099-8.481 26.972-6.36 35.454 4.74 8.481 11.099 6.36 26.972-4.74 35.454l-27.784 21.231c11.099-8.481 26.972-6.36 35.454 4.74 8.481 11.099 6.36 26.972-4.739 35.454L340.292 370.151a74.174 74.174 0 01-40.851 14.6z" fill="#f4c892"/><path d="M488.424 227.574a25.157 25.157 0 00-10.355-7.986c1.108 8.656-2.292 17.651-9.725 23.331L400.456 293.7c-11.155 8.344-13.362 24.184-4.913 35.26l88.141-65.933c11.099-8.481 13.221-24.354 4.74-35.453zm-35.454-4.74l27.767-21.218c11.102-8.484 13.231-24.358 4.757-35.467a25.167 25.167 0 00-10.38-7.991c1.095 8.646-2.306 17.625-9.729 23.297l-27.784 21.231-67.332 51.428c-11.124 8.496-13.259 24.4-4.769 35.529l87.47-66.809zm25.785-83.368c11.098-8.482 13.219-24.354 4.738-35.453a25.157 25.157 0 00-10.388-7.994c1.091 8.643-2.309 17.616-9.729 23.287l-123.821 94.592c-11.13 8.503-13.266 24.416-4.771 35.552l143.971-109.984z" fill="#e2b583"/><path d="M424.593 117.191c11.275-8.616 13.286-24.861 4.327-35.979a24.568 24.568 0 00-9.951-7.383c1.062 8.62-2.348 17.559-9.747 23.213l-100.383 76.682c-11.125 8.498-13.259 24.404-4.769 35.534l120.523-92.067z" fill="#efcebd"/><path d="M451.887 316.53c-8.33 12.058-22.817 46.22-23.052 60.874l-.013 31.979-165.4.25c-.028-18.648-3.216-32.024-5.879-35.444L184.169 258.42c-9.892-9.863-9.917-25.877-.054-35.769 9.862-9.892 25.877-9.916 35.769-.054l35.814 36.515c3.252 3.315 8.887 1.008 8.88-3.636l-.276-199.991c-.021-13.806 10.785-25.514 24.586-25.891 14.273-.389 25.977 11.054 25.998 25.245l-.045-29.508C314.821 11.362 326.128.021 340.096 0c13.969-.021 25.31 11.286 25.331 25.254l.055 36.138c-.021-13.969 11.286-25.31 25.254-25.331 13.969-.021 25.31 11.286 25.331 25.254l.053 34.967c-.021-13.969 11.286-25.31 25.254-25.331 13.969-.021 25.31 11.286 25.331 25.254l-1.677 178.981a74.173 74.173 0 01-13.141 41.344z" fill="#fed9a8"/><path d="M441.374 70.953a25.155 25.155 0 00-12.542 3.349c7.587 4.356 12.707 12.528 12.721 21.905l-.743 84.917c-.121 13.855 11.077 25.151 24.932 25.151l.963-110.068c-.021-13.969-11.362-25.276-25.331-25.254zm-25.254 25.33l-.053-34.967c-.021-13.969-11.362-25.275-25.331-25.254a25.159 25.159 0 00-12.656 3.42c7.519 4.374 12.583 12.508 12.598 21.834l.053 34.967.109 85.165c.018 13.758 11.175 24.901 24.933 24.901h.488l-.141-110.066zm-50.693-71.031C365.405 11.285 354.065-.021 340.097 0a25.157 25.157 0 00-12.669 3.428c7.511 4.375 12.569 12.505 12.584 21.825l.214 156.275c.019 13.757 11.176 24.899 24.933 24.899h.517l-.249-181.175zm-50.54 29.587c-.021-14.191-11.725-25.634-25.998-25.245a24.576 24.576 0 00-11.915 3.449c7.478 4.384 12.506 12.5 12.52 21.796l.17 126.764c.018 13.757 11.176 24.9 24.933 24.9h.494l-.204-151.664z" fill="#f4c892"/><path d="M82.941 307.062l104.908 137.284a6.836 6.836 0 009.582 1.281l30.157-23.045a6.836 6.836 0 001.281-9.582L123.961 275.716a6.836 6.836 0 00-9.582-1.281L84.222 297.48a6.836 6.836 0 00-1.281 9.582z" fill="#e8e8e8"/><path d="M197.431 445.627l30.157-23.045a6.836 6.836 0 001.281-9.582l-49.361-64.595-42.623 29.248 50.964 66.693a6.836 6.836 0 009.582 1.281z" fill="#ddd"/><path d="M19.891 340.347l119.28 156.092a7.354 7.354 0 0010.629 1.12l56.611-48.487a7.356 7.356 0 001.06-10.053L93.234 289.528a7.355 7.355 0 00-9.978-1.618l-61.655 41.887a7.355 7.355 0 00-1.71 10.55z" fill="#7ab8dd"/><path d="M207.471 439.02l-32.678-42.763a7.436 7.436 0 01-1.54 9.466l-57.243 49.029a7.434 7.434 0 01-7.797 1.175l30.958 40.512a7.354 7.354 0 0010.629 1.12l56.611-48.487a7.354 7.354 0 001.06-10.052z" fill="#6fa9d4"/><path d="M258.892 441.675l172.779-.261a6.837 6.837 0 006.826-6.846l-.057-37.954a6.837 6.837 0 00-6.846-6.826l-172.779.261a6.837 6.837 0 00-6.826 6.846l.057 37.954a6.837 6.837 0 006.846 6.826z" fill="#e8e8e8"/><path d="M431.593 389.788l-86.216.13v51.626l86.294-.13a6.836 6.836 0 006.825-6.846l-.057-37.954a6.835 6.835 0 00-6.846-6.826z" fill="#ddd"/><path d="M247.163 512l196.45-.297a7.355 7.355 0 007.332-7.776l-4.266-74.415a7.356 7.356 0 00-7.355-6.935l-188.143.284a7.356 7.356 0 00-7.334 6.957l-4.041 74.428a7.357 7.357 0 007.357 7.754z" fill="#7ab8dd"/><path d="M450.945 503.927l-4.266-74.415a7.355 7.355 0 00-7.354-6.935l-57.076.086a7.351 7.351 0 016.273 6.848l4.266 74.415a7.356 7.356 0 01-7.332 7.777l-139.37.21c.353.051.71.087 1.078.086l196.45-.297c4.222-.005 7.573-3.559 7.331-7.775z" fill="#6fa9d4"/></svg>