<svg xmlns="http://www.w3.org/2000/svg" viewBox="0 0 64 64"><linearGradient id="a" gradientUnits="userSpaceOnUse" x1="26" y1="23.167" x2="26" y2="34.668" spreadMethod="reflect"><stop offset="0" stop-color="#6dc7ff"/><stop offset="1" stop-color="#e6abff"/></linearGradient><path d="M15.083 25.762l9.623 8.142a2.005 2.005 0 002.589 0l9.623-8.142c.71-.601.285-1.762-.647-1.762H15.729c-.932 0-1.357 1.161-.646 1.762z" fill="url(#a)"/><linearGradient id="b" gradientUnits="userSpaceOnUse" x1="32" y1="6.5" x2="32" y2="57.561" spreadMethod="reflect"><stop offset="0" stop-color="#1a6dff"/><stop offset="1" stop-color="#c822ff"/></linearGradient><path d="M54.619 15.886c-1.03-.448-2.537-.81-4.241-.81-5.509 0-9.393 4.172-9.393 8.804 0 2.952 1.981 4.607 4.28 4.607 2.378 0 4.202-1.487 5.589-3.487h.158c-.119 2 1.348 3.487 2.933 3.487 3.726 0 7.055-3.088 7.055-8.691C61 13.558 56.363 9 49.467 9c-7.08 0-12.127 4.309-13.83 10H8c-2.757 0-5 2.243-5 5v26c0 2.757 2.243 5 5 5h36c2.757 0 5-2.243 5-5V34.91c1.816-.171 3.452-.603 5.064-1.404L53.43 31.9c-1.625.859-3.726 1.308-5.985 1.308-5.866 0-10.186-3.849-10.186-10.087 0-7.583 5.43-12.403 11.89-12.403 6.143 0 9.592 3.883 9.592 9.301 0 4.333-2.26 6.871-4.281 6.833-1.308-.037-1.784-1.351-1.189-4.19l1.348-6.776zM8 21h27.194A15.276 15.276 0 0035 23.345c0 2.521.692 4.701 1.857 6.48L27.9 37.153c-1.102.9-2.699.9-3.801 0l-18.4-15.055A2.982 2.982 0 018 21zm9.087 13L5 43.89V24.11L17.087 34zM44 53H8c-1.654 0-3-1.346-3-3v-3.526l13.667-11.182 4.167 3.41A4.992 4.992 0 0026 39.827a4.994 4.994 0 003.166-1.125l4.168-3.41L47 46.474V50c0 1.654-1.346 3-3 3zm3-18v8.89L34.913 34l3.191-2.611C40.321 33.695 43.513 34.997 47 35zm4.052-13.41c-.436 2.316-2.537 5.08-4.835 5.08-1.744 0-2.616-1.195-2.616-2.839 0-3.624 2.814-6.724 6.302-6.724.912 0 1.586.15 1.982.262l-.833 4.221z" fill="url(#b)"/><linearGradient id="c" gradientUnits="userSpaceOnUse" x1="26" y1="6.5" x2="26" y2="57.561" spreadMethod="reflect"><stop offset="0" stop-color="#1a6dff"/><stop offset="1" stop-color="#c822ff"/></linearGradient><path fill="url(#c)" d="M18 49h16v2H18z"/></svg>