<svg xmlns="http://www.w3.org/2000/svg" viewBox="0 0 498.104 498.104"><g transform="translate(0 -8)"><path d="M247.86 389.055a251.233 251.233 0 01-178.208-73.709L9.884 255.578l61.729-61.729a251.212 251.212 0 01177.203-73.707l-.956 268.913z" fill="#fff"/><path d="M249.774 120.642a251.233 251.233 0 01178.208 73.709l59.767 59.768-61.729 61.729a251.212 251.212 0 01-177.203 73.707l.957-268.913z" fill="#a4c2f7"/><path d="M42.019 256.082l61.729-61.729a205.132 205.132 0 01290.1 0l59.768 59.768-61.73 61.73c-80.109 80.109-209.991 80.109-290.1 0l-59.767-59.769z" fill="#e3e7f2"/><circle cx="247.221" cy="255.326" r="100.804" fill="#a4c2f7"/><linearGradient id="a" gradientUnits="userSpaceOnUse" x1="-55.789" y1="657.069" x2="-55.027" y2="656.422" gradientTransform="matrix(169.1515 0 0 -199.3933 9602.428 131207.578)"><stop offset="0" stop-color="#d4e1f4"/><stop offset=".172" stop-color="#d4e1f4"/><stop offset=".2" stop-color="#d4e1f4"/><stop offset=".2" stop-color="#dae4f4"/><stop offset=".201" stop-color="#ebebf4"/><stop offset=".201" stop-color="#f6f1f4"/><stop offset=".202" stop-color="#fdf4f4"/><stop offset=".205" stop-color="#fff5f4"/><stop offset=".252" stop-color="#fff5f4"/><stop offset=".26" stop-color="#fff5f4"/><stop offset=".26" stop-color="#d4e1f4"/><stop offset=".397" stop-color="#d4e1f4"/><stop offset=".42" stop-color="#d4e1f4"/><stop offset=".42" stop-color="#dae4f4"/><stop offset=".421" stop-color="#ebebf4"/><stop offset=".421" stop-color="#f6f1f4"/><stop offset=".422" stop-color="#fdf4f4"/><stop offset=".425" stop-color="#fff5f4"/><stop offset=".489" stop-color="#fff5f4"/><stop offset=".5" stop-color="#fff5f4"/><stop offset=".5" stop-color="#f9f2f4"/><stop offset=".5" stop-color="#e8ebf4"/><stop offset=".5" stop-color="#dde5f4"/><stop offset=".5" stop-color="#d6e2f4"/><stop offset=".501" stop-color="#d4e1f4"/><stop offset=".706" stop-color="#d4e1f4"/><stop offset=".74" stop-color="#d4e1f4"/><stop offset=".741" stop-color="#fff5f4"/><stop offset=".835" stop-color="#fff5f4"/><stop offset=".85" stop-color="#fff5f4"/><stop offset=".851" stop-color="#d4e1f4"/></linearGradient><path d="M230.232 157.541a8.455 8.455 0 01-6.482 2.733 9.02 9.02 0 01-2.717-.552 8.343 8.343 0 01-6.35 2.685 9.114 9.114 0 01-3.158-.642 8.904 8.904 0 01-5.054 4.045c-52.419 17.532-64.49 63.003-56.116 112.446a134.324 134.324 0 008.27 33.342 145.937 145.937 0 0011.813 14.09 45.678 45.678 0 0016.371 8.849 7.451 7.451 0 014.665 5.552 219.7 219.7 0 0128.935 12.582 9.034 9.034 0 011.718 1.519c.204-.012.344-.113.556-.113a8.49 8.49 0 016.653 2.856c50.003-6.431 87.52-48.889 87.747-99.304.226-50.415-36.908-93.208-86.851-100.088z" fill="url(#a)"/><g fill="#428dff"><path d="M249.371 402.066a258.88 258.88 0 01-183.462-76.533L2.5 262.124a8.529 8.529 0 010-12.066l61.729-61.729a262.701 262.701 0 0127.313-23.796 8.535 8.535 0 0110.291 13.617A245.22 245.22 0 0076.3 200.396l-55.7 55.696 57.375 57.375c70.68 71.288 178.066 91.469 269.804 50.704a8.534 8.534 0 116.867 15.625 261.395 261.395 0 01-105.275 22.27zM402.092 350.541a8.532 8.532 0 01-5.175-15.325 245.738 245.738 0 0024.892-21.754l55.696-55.692-57.375-57.375c-68.689-68.767-171.744-89.993-262.017-53.967a248.467 248.467 0 00-8.246 3.458 8.533 8.533 0 11-6.9-15.608 259.026 259.026 0 018.825-3.704c96.607-38.56 206.898-15.843 280.404 57.754l63.408 63.408a8.529 8.529 0 010 12.066l-61.729 61.729a263.523 263.523 0 01-26.625 23.267 8.473 8.473 0 01-5.158 1.743z"/><path d="M189.083 256.674a8.533 8.533 0 01-8.533-8.533c.037-32.974 26.759-59.696 59.733-59.733a8.533 8.533 0 010 17.066c-23.553.028-42.639 19.114-42.667 42.667a8.532 8.532 0 01-8.533 8.533z"/><path d="M248.817 367.608c-61.267 0-110.933-49.667-110.933-110.933s49.667-110.933 110.933-110.933S359.75 195.408 359.75 256.674c-.068 61.239-49.695 110.866-110.933 110.934zm0-204.8c-51.841 0-93.867 42.026-93.867 93.867s42.026 93.867 93.867 93.867 93.867-42.026 93.867-93.867c-.059-51.817-42.05-93.809-93.867-93.867z"/><circle cx="120.817" cy="154.274" r="8.533"/><circle cx="376.817" cy="359.074" r="8.533"/></g></g></svg>