<svg viewBox="0 0 512 512" xmlns="http://www.w3.org/2000/svg"><path d="M437 0H75C33.602 0 0 34.602 0 76v361c0 41.398 33.602 75 75 75h362c41.398 0 75-33.602 75-75V76c0-41.398-33.602-76-75-76zm0 0" fill="#25d9f8"/><path d="M512 76v361c0 41.398-33.602 75-75 75H256V0h181c41.398 0 75 34.602 75 76zm0 0" fill="#00c0f1"/><g fill="#ececf1"><path d="M121 196h60v211h-60zm0 0M121 106h60v60h-60zm0 0M391 275.8V407h-60V286c0-16.5-13.5-30-30-30s-30 13.5-30 30v121h-60V196h60v11.398C286.602 202.301 296.8 196 316 196c40.8 0 75 36.598 75 79.8zm0 0"/></g><path d="M391 275.8V407h-60V286c0-16.5-13.5-30-30-30s-30 13.5-30 30v121h-15V196h15v11.398C286.602 202.301 296.8 196 316 196c40.8 0 75 36.598 75 79.8zm0 0" fill="#e2e2e7"/></svg>