<svg xmlns="http://www.w3.org/2000/svg" viewBox="0 0 64 64"><linearGradient id="a" gradientUnits="userSpaceOnUse" x1="32" y1="5.25" x2="32" y2="58.834" spreadMethod="reflect"><stop offset="0" stop-color="#1a6dff"/><stop offset="1" stop-color="#c822ff"/></linearGradient><path d="M6.399 57.699l3.792-13.847A25.294 25.294 0 017.023 31.58c.005-13.939 11.35-25.279 25.289-25.279 6.762.003 13.115 2.636 17.889 7.414 4.774 4.778 7.402 11.151 7.4 17.944C57.595 45.633 46.25 57 32.312 57c-4.024 0-8.073-1.019-11.744-2.95L6.399 57.699zm14.429-5.781l.346.188C24.645 53.999 28.492 55 32.302 55c12.846 0 23.293-10.471 23.299-23.341.002-6.26-2.418-12.13-6.814-16.53S38.538 8.304 32.312 8.301c-12.836 0-23.283 10.443-23.288 23.279a23.286 23.286 0 003.107 11.639l.209.361-3.101 11.322 11.589-2.984zM32.312 53c-3.686 0-7.415-1.06-10.793-3.063l-.437-.318-8.854 2.323 2.382-8.691-.244-.387a21.115 21.115 0 01-3.241-11.269c.004-11.67 9.513-21.165 21.195-21.165 5.642.002 10.961 2.218 14.979 6.239 4 4.003 6.202 9.345 6.2 15.039C53.495 43.448 43.99 53 32.312 53zm-9.729-4.758C25.641 50.047 29.001 51 32.304 51c10.584 0 19.191-8.654 19.195-19.292.002-5.161-1.992-10-5.614-13.625-3.642-3.644-8.459-5.651-13.565-5.653-10.581 0-19.191 8.598-19.195 19.166a19.116 19.116 0 002.933 10.201l.715 1.131-1.698 6.199 6.429-1.687 1.079.802z" fill="url(#a)"/><linearGradient id="b" gradientUnits="userSpaceOnUse" x1="32.305" y1="17.5" x2="32.305" y2="46.527" spreadMethod="reflect"><stop offset="0" stop-color="#6dc7ff"/><stop offset="1" stop-color="#e6abff"/></linearGradient><path d="M26.12 21.219c-.464-1.031-.952-1.052-1.394-1.07-.361-.015-.774-.015-1.187-.015-.413 0-1.084.155-1.651.775-.568.62-2.168 2.118-2.168 5.164 0 3.047 2.219 5.991 2.529 6.405.31.413 4.284 6.865 10.579 9.347 5.231 2.063 6.296 1.653 7.431 1.549 1.135-.103 3.664-1.498 4.18-2.944.516-1.446.516-2.685.361-2.944-.155-.258-.568-.413-1.187-.723-.619-.31-3.664-1.808-4.232-2.014-.568-.206-.981-.31-1.394.31-.413.619-1.599 2.014-1.96 2.427-.361.414-.723.465-1.342.156-.619-.311-2.614-.964-4.98-3.074-1.841-1.641-3.084-3.668-3.445-4.288-.361-.619-.039-.955.272-1.264.278-.277.619-.723.929-1.085.309-.362.412-.62.619-1.033.206-.414.103-.775-.052-1.085s-1.358-3.37-1.908-4.594z" fill-rule="evenodd" clip-rule="evenodd" fill="url(#b)"/></svg>