<svg xmlns="http://www.w3.org/2000/svg" viewBox="0 0 496.238 496.238"><g fill="#a4c2f7"><path d="M469.253 26.3a60.77 60.77 0 010 85.94l-85.94-85.94a60.77 60.77 0 0185.94 0zM26.984 26.3a60.77 60.77 0 000 85.94l85.94-85.94a60.77 60.77 0 00-85.94 0z"/><circle cx="248.119" cy="257.295" r="221.867"/></g><linearGradient id="a" gradientUnits="userSpaceOnUse" x1="-56.628" y1="644.267" x2="-55.899" y2="643.58" gradientTransform="matrix(418.1334 0 0 -443.7334 23761.2 285988.094)"><stop offset="0" stop-color="#d4e1f4"/><stop offset=".172" stop-color="#d4e1f4"/><stop offset=".2" stop-color="#d4e1f4"/><stop offset=".2" stop-color="#dae4f4"/><stop offset=".201" stop-color="#ebebf4"/><stop offset=".201" stop-color="#f6f1f4"/><stop offset=".202" stop-color="#fdf4f4"/><stop offset=".205" stop-color="#fff5f4"/><stop offset=".252" stop-color="#fff5f4"/><stop offset=".26" stop-color="#fff5f4"/><stop offset=".26" stop-color="#d4e1f4"/><stop offset=".397" stop-color="#d4e1f4"/><stop offset=".42" stop-color="#d4e1f4"/><stop offset=".42" stop-color="#dae4f4"/><stop offset=".421" stop-color="#ebebf4"/><stop offset=".421" stop-color="#f6f1f4"/><stop offset=".422" stop-color="#fdf4f4"/><stop offset=".425" stop-color="#fff5f4"/><stop offset=".489" stop-color="#fff5f4"/><stop offset=".5" stop-color="#fff5f4"/><stop offset=".5" stop-color="#f9f2f4"/><stop offset=".5" stop-color="#e8ebf4"/><stop offset=".5" stop-color="#dde5f4"/><stop offset=".5" stop-color="#d6e2f4"/><stop offset=".501" stop-color="#d4e1f4"/><stop offset=".706" stop-color="#d4e1f4"/><stop offset=".74" stop-color="#d4e1f4"/><stop offset=".741" stop-color="#fff5f4"/><stop offset=".835" stop-color="#fff5f4"/><stop offset=".85" stop-color="#fff5f4"/><stop offset=".851" stop-color="#d4e1f4"/></linearGradient><ellipse cx="235.319" cy="257.295" rx="209.067" ry="221.867" fill="url(#a)"/><circle cx="248.119" cy="257.295" r="25.6" fill="#a4c2f7"/><path d="M248.119 479.173c2.21 0 4.395-.102 6.59-.167-112.584-3.494-202.857-101.377-202.857-221.7S142.125 39.1 254.709 35.606c-2.195-.065-4.38-.167-6.59-.167-122.534 0-221.867 99.333-221.867 221.867s99.333 221.867 221.867 221.867z" fill="#fff"/><g fill="#428dff"><path d="M341.985 264.804h-68.267c-4.713 0-8.533-3.82-8.533-8.533s3.82-8.533 8.533-8.533h68.267a8.533 8.533 0 010 17.066zM248.119 240.238a8.53 8.53 0 01-8.534-8.534v-93.867a8.533 8.533 0 0117.066 0v93.867a8.53 8.53 0 01-8.532 8.534zM111.585 496.238a8.533 8.533 0 01-6.033-14.566l33.558-33.558a8.534 8.534 0 0112.067 12.067l-33.559 33.558a8.51 8.51 0 01-6.033 2.499zM384.652 496.238a8.502 8.502 0 01-6.033-2.5l-33.817-33.817a8.533 8.533 0 0112.067-12.067l33.816 33.817a8.533 8.533 0 01-6.033 14.567zM469.252 120.771a8.537 8.537 0 01-6.033-2.5L377.281 32.33a8.529 8.529 0 010-12.066c27.082-27.017 70.922-27.017 98.004 0 27.021 27.082 27.021 70.926 0 98.008a8.536 8.536 0 01-6.033 2.499zm-73.375-93.983L468.76 99.68c14.875-20.781 12.532-49.274-5.538-67.346-18.07-18.073-46.562-20.419-67.345-5.546z"/><path d="M402.515 105.538a8.533 8.533 0 01-6.033-14.566l25.6-25.6a8.532 8.532 0 1112.066 12.067l-25.6 25.6a8.507 8.507 0 01-6.033 2.499zM26.985 120.771a8.537 8.537 0 01-6.033-2.5c-27.021-27.082-27.021-70.926 0-98.008 27.082-27.017 70.922-27.017 98.004 0a8.529 8.529 0 010 12.066l-85.938 85.942a8.53 8.53 0 01-6.033 2.5zm6.034-88.442c-18.039 18.088-20.382 46.557-5.542 67.35l72.883-72.892C79.57 11.95 51.104 14.292 33.019 32.329z"/><path d="M93.723 105.538a8.502 8.502 0 01-6.033-2.5l-25.6-25.6a8.534 8.534 0 0112.067-12.067l25.6 25.6a8.533 8.533 0 01-6.034 14.567z"/><path d="M248.119 487.704c-127.246 0-230.4-103.154-230.4-230.4s103.154-230.4 230.4-230.4 230.4 103.154 230.4 230.4c-.145 127.187-103.214 230.256-230.4 230.4zm0-443.733c-117.821 0-213.333 95.513-213.333 213.333s95.513 213.333 213.333 213.333 213.333-95.513 213.333-213.333c-.132-117.765-95.567-213.2-213.333-213.333z"/><path d="M248.119 291.438c-18.851 0-34.133-15.282-34.133-34.133 0-18.851 15.282-34.133 34.133-34.133s34.133 15.282 34.133 34.133c-.02 18.842-15.29 34.113-34.133 34.133zm0-51.2c-9.426 0-17.067 7.641-17.067 17.067s7.641 17.067 17.067 17.067 17.067-7.641 17.067-17.067c-.011-9.422-7.646-17.056-17.067-17.067zM248.119 85.604a8.53 8.53 0 01-8.534-8.534v-8.533a8.533 8.533 0 0117.066 0v8.533a8.53 8.53 0 01-8.532 8.534zM248.119 452.538a8.53 8.53 0 01-8.534-8.534v-8.533a8.533 8.533 0 0117.066 0v8.533a8.53 8.53 0 01-8.532 8.534zM435.852 264.804h-8.533a8.533 8.533 0 010-17.066h8.533a8.533 8.533 0 010 17.066zM68.919 264.804h-8.533a8.533 8.533 0 010-17.066h8.533a8.533 8.533 0 010 17.066zM374.831 138.088a8.533 8.533 0 01-6.033-14.566l6.033-6.033a8.53 8.53 0 0114.275 3.825 8.535 8.535 0 01-2.208 8.242l-6.033 6.033a8.51 8.51 0 01-6.034 2.499zM115.373 397.554a8.533 8.533 0 01-6.033-14.566l6.033-6.033a8.532 8.532 0 1112.067 12.067l-6.033 6.033a8.506 8.506 0 01-6.034 2.499zM380.865 397.554a8.502 8.502 0 01-6.033-2.5l-6.033-6.033a8.53 8.53 0 013.825-14.275 8.535 8.535 0 018.242 2.208l6.033 6.033a8.533 8.533 0 01-6.034 14.567zM121.406 138.088a8.502 8.502 0 01-6.033-2.5l-6.033-6.033a8.533 8.533 0 0112.067-12.067l6.033 6.033a8.533 8.533 0 01-6.034 14.567z"/></g></svg>