<svg xmlns="http://www.w3.org/2000/svg" viewBox="0 0 448 448"><path d="M320.01 64h-288c-17.6 0-32 14.399-32 32v256c0 17.6 14.4 32 32 32h288c17.673 0 32-14.327 32-32V96c0-17.674-14.327-32-32-32z" fill="#756556"/><path d="M320.01 160h-288v123.582c0 2.829 1.124 5.542 3.124 7.542l57.751 57.751c2 2 4.714 3.124 7.542 3.124H320.01V160z" fill="#f4f5f5"/><path d="M90.801 295.301a21.449 21.449 0 015.208 14.032v41.675c1.378.63 2.874.991 4.418.991h47.078l-56.704-56.698z" fill="#cdcccc"/><path d="M96.01 309.333c0-11.782-9.551-21.334-21.334-21.334H33.001c.524 1.146 1.224 2.216 2.133 3.124l57.751 57.751c.909.909 1.978 1.609 3.124 2.133l.001-41.674z" fill="#e6e6e5"/><path d="M283.44 123.222l54.006-54.005C332.424 65.942 326.452 64 320.01 64h-41.348v55.718l4.778 3.504z" fill="#4f443a"/><path d="M272.01 128c-8.837 0-16-7.163-16-16V16c0-8.837 7.163-16 16-16s16 7.163 16 16v96c0 8.837-7.163 16-16 16z" fill="#cdd7de"/><path fill="#4f443a" d="M86.663 64v55.718l4.777 3.504L150.663 64z"/><path d="M80.01 128c-8.837 0-16-7.163-16-16V16c0-8.837 7.163-16 16-16s16 7.163 16 16v96c0 8.837-7.163 16-16 16z" fill="#cdd7de"/><g fill="#5885c4"><path d="M159.99 192h32v32h-32zM223.99 192h32v32h-32zM95.99 256h32v32h-32zM159.99 256h32v32h-32z"/></g><circle cx="335.99" cy="336" r="112" fill="#cdd7de"/><path d="M335.994 416c-44.112 0-80-35.888-80-80s35.888-80 80-80 80 35.888 80 80-35.888 80-80 80z" fill="#fff"/><g fill="#787878"><circle cx="335.99" cy="280" r="8"/><circle cx="335.99" cy="392" r="8"/><circle cx="279.99" cy="336" r="8"/><circle cx="391.99" cy="336" r="8"/><circle cx="296.39" cy="296.4" r="8"/><circle cx="375.59" cy="375.6" r="8"/><circle cx="296.39" cy="375.6" r="8"/></g><path d="M323.45 323.088c-7.024 7.024-7.024 18.432 0 25.456 7.04 7.04 18.432 7.024 25.456 0a18.14 18.14 0 002.88-3.744l29.008-49.216c1.68-2.848-1.536-6.064-4.384-4.384l-49.2 29.024a17.73 17.73 0 00-3.76 2.864z" fill="#d64230"/><g fill="#bec9d1"><path d="M96.01 112V96h-32v16c0 8.836 7.163 16 16 16s16-7.164 16-16zM288.01 112V96h-32v16c0 8.836 7.163 16 16 16s16-7.164 16-16z"/></g></svg>