<svg xmlns="http://www.w3.org/2000/svg" viewBox="0 0 48 48"><path d="M13.999 24.717L14.756 20H17l-1.771 8h-1.98l-1.244-4.749L10.753 28h-1.98L7 20h2.246l.743 4.828L11.184 20h1.632l1.183 4.717zm12 0L26.756 20H29l-1.771 8h-1.98l-1.244-4.749L22.753 28h-1.98L19 20h2.246l.743 4.828L23.184 20h1.632l1.183 4.717zm12 0L38.756 20H41l-1.771 8h-1.98l-1.244-4.749L34.753 28h-1.98L31 20h2.246l.743 4.828L35.184 20h1.632l1.183 4.717z" fill="#3f51b5"/><path fill="#2196f3" d="M10 13h28v2H10zm0 20h28v2H10z"/><path d="M23 7.201V18h2V7.201C24.667 7.08 24.332 7 24 7s-.667.08-1 .201z" fill="#2196f3"/><path d="M9.178 18a16.073 16.073 0 019.994-9.252c-1.702 2.13-3.001 5.367-3.668 9.252h2.021c.976-5.371 3.19-8.969 5.475-9.799v-.15c.332-.021.662-.051 1-.051s.668.03 1 .051v.15c2.285.831 4.499 4.428 5.475 9.799h2.021c-.667-3.885-1.966-7.122-3.668-9.252A16.07 16.07 0 0138.822 18h2.128C38.471 11.021 31.819 6 24 6S9.529 11.021 7.05 18h2.128zm29.644 12a16.073 16.073 0 01-9.994 9.252c1.702-2.13 3.001-5.367 3.668-9.252h-2.021c-.976 5.371-3.19 8.969-5.475 9.799v.15c-.332.021-.662.051-1 .051s-.668-.03-1-.051v-.15c-2.285-.831-4.499-4.428-5.475-9.799h-2.021c.667 3.885 1.966 7.122 3.668 9.252A16.073 16.073 0 019.178 30H7.05C9.529 36.979 16.181 42 24 42s14.471-5.021 16.95-12h-2.128z" fill="#2196f3"/><path d="M25 40.799V30h-2v10.799c.333.121.668.201 1 .201s.667-.08 1-.201z" fill="#2196f3"/></svg>